<svg width="550" height="320" xmlns="http://www.w3.org/2000/svg">
 <style type="text/css">.st1{fill:none;}
	.st2{fill:#357FEB;}
	.st3{fill:#FFC400;}</style>

 <g>
  <title>background</title>
  <rect fill="none" id="canvas_background" height="1002" width="1002" y="-1" x="-1"/>
 </g>
 <g>
  <title>Layer 1</title>
  <g id="svg_1">
   <path id="svg_2" d="m167.46999,130.14c-3.66,-9.27 -8.79,-17.38 -15.35,-24.32c-6.57,-6.97 -14.33,-12.41 -23.32,-16.38c-8.97,-3.96 -18.78,-5.95 -29.41,-5.95c-9.47,0 -17.86,1.46 -25.2,4.34c-7.35,2.9 -13.81,6.57 -19.42,11.01l0,-11.59l-34.75,0l0,203.12l34.75,0l0,-130.38c0,-11.59 4.06,-21.44 12.17,-29.55c8.13,-8.11 17.98,-12.17 29.57,-12.17c11.19,0 21.04,4.06 29.55,12.17c8.11,8.11 12.17,17.96 12.17,29.55c0,11.39 -4.06,21.16 -12.17,29.27c-4.06,4.04 -8.61,7.09 -13.61,9.13c-5.02,2.02 -10.35,3.04 -15.94,3.04c-5.81,0 -11.01,-0.98 -15.65,-2.9l-12.45,30.99c8.87,4.44 19.22,6.67 30.99,6.67c10.63,0 20.44,-1.98 29.41,-5.93c8.99,-3.96 16.76,-9.43 23.32,-16.38c6.57,-6.95 11.69,-15.07 15.35,-24.34c3.68,-9.27 5.51,-19.12 5.51,-29.55c-0.01,-10.61 -1.83,-20.58 -5.52,-29.85z" class="st2"/>
   <rect id="svg_3" height="34.77" width="34.77" class="st3" y="29.61" x="188.91999"/>
   <rect id="svg_4" height="144.87" width="34.77" class="st2" y="87.55" x="188.91999"/>
   <path id="svg_5" d="m311.76999,197.66l-23.18,0c-3.48,0 -6.49,-1.26 -8.99,-3.78c-2.5,-2.5 -3.76,-5.59 -3.76,-9.27l0,-44.9l28.97,0l-8.69,-34.77l-20.28,0l0,-55.33l-34.77,8.69l0,126.32c0,6.57 1.26,12.75 3.76,18.54c2.52,5.81 5.89,10.87 10.15,15.21c4.24,4.34 9.27,7.79 15.05,10.29c5.81,2.52 11.99,3.76 18.56,3.76l31.87,0l-8.69,-34.76z" class="st2"/>
   <rect id="svg_6" height="34.77" width="34.77" class="st3" y="29.61" x="332.03999"/>
   <rect id="svg_7" height="144.87" width="34.77" class="st2" y="87.55" x="332.03999"/>
   <polyline id="svg_8" points="426.3399353027344,282.44001388549805 426.3000183105469,282.41999435424805 419.760009765625,277.89997482299805 416.4099426269531,275.58002853393555 413.1700134277344,273.3399772644043 " class="st1"/>
   <path id="svg_9" d="m495.20999,87.26l0,11.59c-5.61,-4.44 -12.07,-8.11 -19.42,-11.01c-7.35,-2.88 -15.74,-4.34 -25.2,-4.34c-10.63,0 -20.44,1.98 -29.41,5.95c-8.99,3.96 -16.76,9.41 -23.32,16.38c-6.57,6.95 -11.69,15.05 -15.35,24.32c-3.68,9.27 -5.51,19.24 -5.51,29.85c0,10.43 1.82,20.28 5.51,29.55c3.66,9.27 8.79,17.4 15.35,24.34c6.57,6.95 14.33,12.41 23.32,16.38c8.97,3.94 18.78,5.93 29.41,5.93c11.77,0 22.12,-2.22 30.99,-6.67l-12.45,-30.99c-4.64,1.92 -9.85,2.9 -15.65,2.9c-5.59,0 -10.91,-1.02 -15.94,-3.04c-5,-2.04 -9.55,-5.08 -13.61,-9.13c-8.11,-8.11 -12.17,-17.88 -12.17,-29.27c0,-11.59 4.06,-21.44 12.17,-29.55c8.51,-8.11 18.36,-12.17 29.55,-12.17c11.59,0 21.44,4.06 29.57,12.17c8.11,8.11 12.17,17.96 12.17,29.55l0,75.8c0,10.96 -8.89,19.85 -19.85,19.85l-289.01,0l0,34.74l308.86,0l0.02,0c19.18,0 34.74,-15.55 34.74,-34.74l0,0l0,-168.39l-34.77,0z" class="st2"/>
  </g>
 </g>
</svg>